<svg width="146" height="68" viewBox="0 0 146 68" fill="none" xmlns="http://www.w3.org/2000/svg">
<path d="M1 43H145V65C145 66.1046 144.105 67 143 67H3C1.89543 67 1 66.1046 1 65V43Z" fill="#333333" stroke="#333333"/>
<path d="M91 43H145V65C145 66.1046 144.105 67 143 67H91V43Z" fill="white" stroke="#333333"/>
<path d="M101.201 61.9805C100.373 61.9805 99.6365 61.8178 98.9922 61.4923C98.361 61.1539 97.8679 60.6853 97.5128 60.0865C97.1709 59.4747 97 58.7717 97 57.9777V51.9833C97 50.7727 97.3813 49.8094 98.144 49.0934C98.9199 48.3645 99.939 48 101.201 48C102.464 48 103.476 48.358 104.239 49.0739C105.002 49.7899 105.383 50.7401 105.383 51.9247V52.0809C105.383 52.146 105.363 52.198 105.324 52.2371C105.284 52.2762 105.238 52.2957 105.186 52.2957L103.687 52.3738C103.555 52.3738 103.489 52.3087 103.489 52.1785V51.8856C103.489 51.2087 103.279 50.662 102.858 50.2455C102.437 49.8289 101.885 49.6206 101.201 49.6206C100.518 49.6206 99.9587 49.8289 99.5247 50.2455C99.104 50.662 98.8936 51.2087 98.8936 51.8856V58.0948C98.8936 58.7717 99.104 59.3185 99.5247 59.735C99.9587 60.1516 100.518 60.3598 101.201 60.3598C101.885 60.3598 102.437 60.1516 102.858 59.735C103.279 59.3185 103.489 58.7717 103.489 58.0948V57.8215C103.489 57.6913 103.555 57.6262 103.687 57.6262L105.186 57.7043C105.317 57.7043 105.383 57.7694 105.383 57.8996V58.0363C105.383 58.8173 105.205 59.5072 104.85 60.106C104.508 60.7048 104.022 61.1669 103.391 61.4923C102.76 61.8178 102.03 61.9805 101.201 61.9805Z" fill="#333333"/>
<path d="M112.095 62C111.253 62 110.51 61.8308 109.866 61.4923C109.235 61.1409 108.742 60.6527 108.386 60.0279C108.031 59.4031 107.854 58.6806 107.854 57.8605V52.1199C107.854 51.3129 108.031 50.5969 108.386 49.9721C108.742 49.3473 109.235 48.8656 109.866 48.5272C110.51 48.1757 111.253 48 112.095 48C112.936 48 113.679 48.1757 114.324 48.5272C114.968 48.8656 115.468 49.3473 115.823 49.9721C116.178 50.5969 116.355 51.3129 116.355 52.1199V57.8605C116.355 58.6806 116.178 59.4031 115.823 60.0279C115.468 60.6527 114.968 61.1409 114.324 61.4923C113.679 61.8308 112.936 62 112.095 62ZM112.095 60.3598C112.805 60.3598 113.377 60.1385 113.811 59.696C114.245 59.2534 114.462 58.6676 114.462 57.9386V52.0809C114.462 51.3519 114.245 50.7596 113.811 50.304C113.377 49.8484 112.805 49.6206 112.095 49.6206C111.398 49.6206 110.832 49.8484 110.398 50.304C109.964 50.7596 109.747 51.3519 109.747 52.0809V57.9386C109.747 58.6546 109.964 59.2404 110.398 59.696C110.832 60.1385 111.398 60.3598 112.095 60.3598Z" fill="#333333"/>
<path d="M126.119 48.3515C126.119 48.2213 126.185 48.1562 126.316 48.1562H127.815C127.947 48.1562 128.012 48.2213 128.012 48.3515V61.629C128.012 61.7592 127.947 61.8243 127.815 61.8243H126.237C126.119 61.8243 126.04 61.7787 126 61.6876L121.247 52.2176C121.22 52.1915 121.194 52.1785 121.168 52.1785C121.155 52.1785 121.148 52.198 121.148 52.2371L121.168 61.629C121.168 61.7592 121.102 61.8243 120.971 61.8243H119.472C119.34 61.8243 119.274 61.7592 119.274 61.629V48.3515C119.274 48.2213 119.34 48.1562 119.472 48.1562H121.05C121.168 48.1562 121.247 48.2018 121.286 48.2929L126.02 57.7629C126.046 57.7889 126.066 57.802 126.079 57.802C126.106 57.802 126.119 57.7824 126.119 57.7434V48.3515Z" fill="#333333"/>
<path d="M139 49.5816C139 49.7118 138.934 49.7768 138.803 49.7768H133.102C133.05 49.7768 133.023 49.8029 133.023 49.855V54.0725C133.023 54.1246 133.05 54.1506 133.102 54.1506H136.85C136.982 54.1506 137.047 54.2157 137.047 54.3459V55.576C137.047 55.7062 136.982 55.7713 136.85 55.7713H133.102C133.05 55.7713 133.023 55.7973 133.023 55.8494V61.629C133.023 61.7592 132.958 61.8243 132.826 61.8243H131.327C131.196 61.8243 131.13 61.7592 131.13 61.629V48.3515C131.13 48.2213 131.196 48.1562 131.327 48.1562H138.803C138.934 48.1562 139 48.2213 139 48.3515V49.5816Z" fill="#333333"/>
<path d="M14.7965 61.8243C14.6794 61.8243 14.6078 61.7657 14.5818 61.6485L13.996 59.3835C13.983 59.3445 13.9505 59.325 13.8984 59.325H9.58366C9.51858 59.325 9.48604 59.3445 9.48604 59.3835L8.91984 61.6485C8.90683 61.7657 8.83524 61.8243 8.70508 61.8243H7.18222C7.11714 61.8243 7.06508 61.8047 7.02603 61.7657C7 61.7266 6.99349 61.6746 7.00651 61.6095L10.6184 48.3319C10.6445 48.2148 10.716 48.1562 10.8332 48.1562H12.6684C12.7856 48.1562 12.8572 48.2148 12.8832 48.3319L16.5146 61.6095L16.5341 61.6681C16.5341 61.7722 16.4691 61.8243 16.3389 61.8243H14.7965ZM9.89604 57.7629C9.88302 57.7759 9.88302 57.7954 9.89604 57.8215C9.92207 57.8345 9.9481 57.841 9.97413 57.841H13.5079C13.534 57.841 13.5535 57.8345 13.5665 57.8215C13.5926 57.7954 13.5991 57.7759 13.586 57.7629L11.7703 50.6946C11.7573 50.6685 11.7443 50.6555 11.7313 50.6555C11.7183 50.6555 11.7052 50.6685 11.6922 50.6946L9.89604 57.7629Z" fill="white"/>
<path d="M20.2319 61.8243C20.1148 61.8243 20.0432 61.7657 20.0172 61.6485L16.9129 48.371L16.8934 48.2929C16.8934 48.2018 16.9519 48.1562 17.0691 48.1562H18.631C18.7611 48.1562 18.8327 48.2148 18.8457 48.3319L20.9348 57.7824C20.9478 57.8215 20.9608 57.841 20.9738 57.841C20.9869 57.841 20.9999 57.8215 21.0129 57.7824L22.9067 48.3319C22.9327 48.2148 23.0043 48.1562 23.1215 48.1562H24.5467C24.6769 48.1562 24.7484 48.2148 24.7615 48.3319L26.7919 57.7824C26.805 57.8215 26.818 57.841 26.831 57.841C26.844 57.841 26.857 57.8215 26.87 57.7824L28.8615 48.3319C28.8875 48.2148 28.9591 48.1562 29.0762 48.1562H30.5796C30.6446 48.1562 30.6902 48.1757 30.7162 48.2148C30.7553 48.2538 30.7683 48.3059 30.7553 48.371L27.7681 61.6485C27.7551 61.7657 27.6835 61.8243 27.5534 61.8243H26.0891C25.9719 61.8243 25.9004 61.7657 25.8743 61.6485L23.8634 51.9833C23.8503 51.9442 23.8373 51.9247 23.8243 51.9247C23.8113 51.9247 23.7983 51.9442 23.7853 51.9833L21.8524 61.6485C21.8394 61.7657 21.7678 61.8243 21.6376 61.8243H20.2319Z" fill="white"/>
<path d="M40.7487 49.5816C40.7487 49.7118 40.6837 49.7768 40.5535 49.7768H34.8916C34.8395 49.7768 34.8135 49.8029 34.8135 49.855V54.0725C34.8135 54.1246 34.8395 54.1506 34.8916 54.1506H38.6206C38.7508 54.1506 38.8159 54.2157 38.8159 54.3459V55.576C38.8159 55.7062 38.7508 55.7713 38.6206 55.7713H34.8916C34.8395 55.7713 34.8135 55.7973 34.8135 55.8494V60.1255C34.8135 60.1776 34.8395 60.2036 34.8916 60.2036H40.5535C40.6837 60.2036 40.7487 60.2687 40.7487 60.3989V61.629C40.7487 61.7592 40.6837 61.8243 40.5535 61.8243H33.1344C33.0043 61.8243 32.9392 61.7592 32.9392 61.629V48.3515C32.9392 48.2213 33.0043 48.1562 33.1344 48.1562H40.5535C40.6837 48.1562 40.7487 48.2213 40.7487 48.3515V49.5816Z" fill="white"/>
<path d="M46.97 61.9805C46.137 61.9805 45.4016 61.8308 44.7638 61.5314C44.139 61.219 43.6509 60.7894 43.2995 60.2427C42.9611 59.696 42.7919 59.0581 42.7919 58.3292V57.802C42.7919 57.6718 42.857 57.6067 42.9871 57.6067H44.4319C44.562 57.6067 44.6271 57.6718 44.6271 57.802V58.2315C44.6271 58.8694 44.8419 59.3835 45.2714 59.7741C45.714 60.1646 46.3062 60.3598 47.0481 60.3598C47.7119 60.3598 48.2325 60.1841 48.61 59.8326C49.0005 59.4682 49.1957 58.993 49.1957 58.4073C49.1957 58.0167 49.0981 57.6783 48.9029 57.3919C48.7076 57.1055 48.4213 56.8387 48.0438 56.5914C47.6794 56.344 47.1457 56.0316 46.4428 55.6541C45.6489 55.2376 45.0111 54.8666 44.5295 54.5411C44.0609 54.2157 43.6705 53.8057 43.3581 53.311C43.0457 52.8164 42.8895 52.2176 42.8895 51.5146C42.8895 50.4212 43.2474 49.5621 43.9633 48.9372C44.6792 48.3124 45.6294 48 46.8138 48C47.6338 48 48.3562 48.1562 48.9809 48.4686C49.6057 48.781 50.0873 49.2236 50.4257 49.7964C50.7771 50.3561 50.9529 51.007 50.9529 51.749V52.198C50.9529 52.3282 50.8878 52.3933 50.7576 52.3933H49.2933C49.1632 52.3933 49.0981 52.3282 49.0981 52.198V51.788C49.0981 51.1502 48.8898 50.6295 48.4733 50.2259C48.0568 49.8224 47.4906 49.6206 46.7747 49.6206C46.137 49.6206 45.6359 49.7834 45.2714 50.1088C44.92 50.4342 44.7443 50.8963 44.7443 51.4951C44.7443 51.8856 44.8289 52.2176 44.9981 52.4909C45.1803 52.7643 45.4536 53.0246 45.8181 53.272C46.1825 53.5063 46.7227 53.8057 47.4386 54.1702C48.3367 54.6778 49.0135 55.0944 49.469 55.4198C49.9376 55.7452 50.3151 56.1423 50.6014 56.6109C50.9008 57.0795 51.0505 57.6457 51.0505 58.3096C51.0505 59.4291 50.6795 60.3208 49.9376 60.9847C49.2087 61.6485 48.2195 61.9805 46.97 61.9805Z" fill="white"/>
<path d="M57.5292 62C56.6962 62 55.9608 61.8308 55.323 61.4923C54.6982 61.1409 54.2101 60.6527 53.8587 60.0279C53.5073 59.4031 53.3316 58.6806 53.3316 57.8605V52.1199C53.3316 51.3129 53.5073 50.5969 53.8587 49.9721C54.2101 49.3473 54.6982 48.8656 55.323 48.5272C55.9608 48.1757 56.6962 48 57.5292 48C58.3622 48 59.0976 48.1757 59.7354 48.5272C60.3732 48.8656 60.8678 49.3473 61.2192 49.9721C61.5706 50.5969 61.7463 51.3129 61.7463 52.1199V57.8605C61.7463 58.6806 61.5706 59.4031 61.2192 60.0279C60.8678 60.6527 60.3732 61.1409 59.7354 61.4923C59.0976 61.8308 58.3622 62 57.5292 62ZM57.5292 60.3598C58.232 60.3598 58.7982 60.1385 59.2278 59.696C59.6573 59.2534 59.872 58.6676 59.872 57.9386V52.0809C59.872 51.3519 59.6573 50.7596 59.2278 50.304C58.7982 49.8484 58.232 49.6206 57.5292 49.6206C56.8393 49.6206 56.2797 49.8484 55.8501 50.304C55.4206 50.7596 55.2058 51.3519 55.2058 52.0809V57.9386C55.2058 58.6546 55.4206 59.2404 55.8501 59.696C56.2797 60.1385 56.8393 60.3598 57.5292 60.3598Z" fill="white"/>
<path d="M72.0938 48.2929C72.1589 48.2018 72.237 48.1562 72.3281 48.1562H73.8119C73.9421 48.1562 74.0072 48.2213 74.0072 48.3515V61.629C74.0072 61.7592 73.9421 61.8243 73.8119 61.8243H72.3281C72.198 61.8243 72.1329 61.7592 72.1329 61.629V51.788C72.1329 51.749 72.1199 51.7294 72.0938 51.7294C72.0678 51.7164 72.0483 51.7294 72.0352 51.7685L69.7119 55.6151C69.6468 55.7062 69.5687 55.7517 69.4776 55.7517H69.1652C69.0741 55.7517 68.996 55.7062 68.931 55.6151L66.5881 51.8075C66.5751 51.7685 66.5556 51.7555 66.5295 51.7685C66.5035 51.7685 66.4905 51.788 66.4905 51.8271V61.629C66.4905 61.7592 66.4254 61.8243 66.2952 61.8243H64.8114C64.6813 61.8243 64.6162 61.7592 64.6162 61.629V48.3515C64.6162 48.2213 64.6813 48.1562 64.8114 48.1562H66.2952C66.3864 48.1562 66.4644 48.2018 66.5295 48.2929L69.2629 52.7057C69.2759 52.7187 69.2954 52.7252 69.3214 52.7252C69.3475 52.7252 69.367 52.7187 69.38 52.7057L72.0938 48.2929Z" fill="white"/>
<path d="M85 49.5816C85 49.7118 84.9349 49.7768 84.8048 49.7768H79.1428C79.0908 49.7768 79.0647 49.8029 79.0647 49.855V54.0725C79.0647 54.1246 79.0908 54.1506 79.1428 54.1506H82.8719C83.0021 54.1506 83.0671 54.2157 83.0671 54.3459V55.576C83.0671 55.7062 83.0021 55.7713 82.8719 55.7713H79.1428C79.0908 55.7713 79.0647 55.7973 79.0647 55.8494V60.1255C79.0647 60.1776 79.0908 60.2036 79.1428 60.2036H84.8048C84.9349 60.2036 85 60.2687 85 60.3989V61.629C85 61.7592 84.9349 61.8243 84.8048 61.8243H77.3857C77.2555 61.8243 77.1905 61.7592 77.1905 61.629V48.3515C77.1905 48.2213 77.2555 48.1562 77.3857 48.1562H84.8048C84.9349 48.1562 85 48.2213 85 48.3515V49.5816Z" fill="white"/>
<path d="M1 3C1 1.89543 1.89543 1 3 1H143C144.105 1 145 1.89543 145 3V43H1V3Z" stroke="#333333"/>
<path d="M11.2505 30.7497C11.0835 30.7497 11 30.6662 11 30.4993V13.4757C11 13.3088 11.0835 13.2253 11.2505 13.2253H16.3356C17.8887 13.2253 19.1245 13.6676 20.0429 14.5522C20.9781 15.4367 21.4457 16.6134 21.4457 18.0821V25.8929C21.4457 27.3616 20.9781 28.5382 20.0429 29.4228C19.1245 30.3074 17.8887 30.7497 16.3356 30.7497H11.2505ZM13.4048 28.5716C13.4048 28.6384 13.4382 28.6718 13.505 28.6718L16.3857 28.6467C17.1873 28.6467 17.8219 28.3797 18.2895 27.8456C18.7738 27.2949 19.0243 26.5605 19.041 25.6426V18.3324C19.041 17.3978 18.7988 16.6634 18.3145 16.1293C17.8302 15.5786 17.1789 15.3032 16.3606 15.3032H13.505C13.4382 15.3032 13.4048 15.3366 13.4048 15.4033V28.5716Z" fill="#333333"/>
<path d="M35.0732 15.0529C35.0732 15.2197 34.9897 15.3032 34.8227 15.3032H27.5583C27.4915 15.3032 27.4581 15.3366 27.4581 15.4033V20.8108C27.4581 20.8776 27.4915 20.911 27.5583 20.911H32.3427C32.5097 20.911 32.5932 20.9944 32.5932 21.1613V22.7385C32.5932 22.9054 32.5097 22.9889 32.3427 22.9889H27.5583C27.4915 22.9889 27.4581 23.0223 27.4581 23.089V28.5716C27.4581 28.6384 27.4915 28.6718 27.5583 28.6718H34.8227C34.9897 28.6718 35.0732 28.7552 35.0732 28.9221V30.4993C35.0732 30.6662 34.9897 30.7497 34.8227 30.7497H25.3038C25.1368 30.7497 25.0533 30.6662 25.0533 30.4993V13.4757C25.0533 13.3088 25.1368 13.2253 25.3038 13.2253H34.8227C34.9897 13.2253 35.0732 13.3088 35.0732 13.4757V15.0529Z" fill="#333333"/>
<path d="M43.0552 30.9499C41.9864 30.9499 41.0429 30.758 40.2246 30.3741C39.423 29.9736 38.7968 29.4228 38.3459 28.7218C37.9117 28.0209 37.6946 27.2031 37.6946 26.2684V25.5925C37.6946 25.4256 37.7781 25.3421 37.9451 25.3421H39.7988C39.9658 25.3421 40.0493 25.4256 40.0493 25.5925V26.1433C40.0493 26.9611 40.3248 27.6203 40.8759 28.121C41.4437 28.6217 42.2035 28.872 43.1554 28.872C44.0071 28.872 44.6751 28.6467 45.1594 28.1961C45.6604 27.7288 45.9109 27.1196 45.9109 26.3686C45.9109 25.8679 45.7856 25.4339 45.5351 25.0668C45.2846 24.6996 44.9172 24.3574 44.433 24.0403C43.9654 23.7232 43.2807 23.3227 42.3789 22.8387C41.3602 22.3046 40.5419 21.8289 39.924 21.4117C39.3228 20.9944 38.8218 20.4687 38.421 19.8345C38.0202 19.2003 37.8198 18.4325 37.8198 17.5313C37.8198 16.1293 38.2791 15.0278 39.1976 14.2267C40.1161 13.4256 41.3351 13.025 42.8548 13.025C43.9069 13.025 44.8338 13.2253 45.6353 13.6259C46.4369 14.0264 47.0548 14.5939 47.489 15.3282C47.9399 16.0459 48.1654 16.8804 48.1654 17.8317V18.4075C48.1654 18.5744 48.0819 18.6579 47.9149 18.6579H46.0361C45.8691 18.6579 45.7856 18.5744 45.7856 18.4075V17.8818C45.7856 17.064 45.5184 16.3964 44.984 15.879C44.4497 15.3616 43.7232 15.1029 42.8047 15.1029C41.9864 15.1029 41.3435 15.3115 40.8759 15.7288C40.425 16.146 40.1996 16.7385 40.1996 17.5063C40.1996 18.007 40.3081 18.4325 40.5252 18.783C40.759 19.1335 41.1097 19.4673 41.5773 19.7844C42.0449 20.0848 42.7379 20.4687 43.6564 20.936C44.8087 21.5869 45.6771 22.121 46.2616 22.5382C46.8628 22.9555 47.3471 23.4645 47.7145 24.0654C48.0986 24.6662 48.2906 25.3922 48.2906 26.2434C48.2906 27.6787 47.8147 28.822 46.8628 29.6732C45.9276 30.5243 44.6584 30.9499 43.0552 30.9499Z" fill="#333333"/>
<path d="M51.8937 30.7497C51.7267 30.7497 51.6432 30.6662 51.6432 30.4993V13.4757C51.6432 13.3088 51.7267 13.2253 51.8937 13.2253H53.7974C53.9644 13.2253 54.0479 13.3088 54.0479 13.4757V30.4993C54.0479 30.6662 53.9644 30.7497 53.7974 30.7497H51.8937Z" fill="#333333"/>
<path d="M63.0466 30.9499C61.4602 30.9499 60.1826 30.491 59.214 29.573C58.2455 28.6384 57.7612 27.4117 57.7612 25.8929V18.0821C57.7612 16.5633 58.2455 15.3449 59.214 14.427C60.1826 13.4924 61.4602 13.025 63.0466 13.025C64.0987 13.025 65.0256 13.2337 65.8272 13.6509C66.6288 14.0515 67.2467 14.6273 67.6808 15.3783C68.1317 16.1293 68.3572 16.9805 68.3572 17.9319V18.6078C68.3572 18.7747 68.2737 18.8581 68.1067 18.8581H66.2029C66.0359 18.8581 65.9524 18.7747 65.9524 18.6078V17.9319C65.9524 17.0974 65.6852 16.4214 65.1508 15.904C64.6331 15.37 63.9317 15.1029 63.0466 15.1029C62.1783 15.1029 61.4769 15.3783 60.9425 15.9291C60.4081 16.4631 60.1409 17.1641 60.1409 18.032V25.943C60.1409 26.8108 60.4081 27.5202 60.9425 28.0709C61.4936 28.605 62.2117 28.872 63.0968 28.872C63.9651 28.872 64.6582 28.6217 65.1759 28.121C65.6936 27.6203 65.9524 26.9444 65.9524 26.0932V23.765C65.9524 23.6982 65.919 23.6648 65.8522 23.6648H63.222C63.055 23.6648 62.9715 23.5814 62.9715 23.4145V21.8623C62.9715 21.6954 63.055 21.612 63.222 21.612H68.1067C68.2737 21.612 68.3572 21.6954 68.3572 21.8623V25.7677C68.3572 27.3866 67.8729 28.6551 66.9043 29.573C65.9524 30.491 64.6665 30.9499 63.0466 30.9499Z" fill="#333333"/>
<path d="M80.7607 13.4757C80.7607 13.3088 80.8442 13.2253 81.0112 13.2253H82.915C83.082 13.2253 83.1655 13.3088 83.1655 13.4757V30.4993C83.1655 30.6662 83.082 30.7497 82.915 30.7497H80.911C80.7607 30.7497 80.6605 30.6912 80.6104 30.5744L74.5734 18.4325C74.54 18.3992 74.5066 18.3825 74.4732 18.3825C74.4565 18.3825 74.4482 18.4075 74.4482 18.4576L74.4732 30.4993C74.4732 30.6662 74.3897 30.7497 74.2227 30.7497H72.319C72.152 30.7497 72.0685 30.6662 72.0685 30.4993V13.4757C72.0685 13.3088 72.152 13.2253 72.319 13.2253H74.3229C74.4732 13.2253 74.5734 13.2837 74.6235 13.4006L80.6355 25.5424C80.6689 25.5758 80.6939 25.5925 80.7106 25.5925C80.744 25.5925 80.7607 25.5675 80.7607 25.5174V13.4757Z" fill="#333333"/>
<path d="M95.1169 28.5466C95.0668 28.63 95.0835 28.6718 95.167 28.6718H101.805C101.972 28.6718 102.056 28.7552 102.056 28.9221V30.4993C102.056 30.6662 101.972 30.7497 101.805 30.7497H92.3615C92.1945 30.7497 92.111 30.6662 92.111 30.4993V28.8971C92.111 28.7802 92.1444 28.6801 92.2112 28.5967C94.3654 25.8261 96.0438 23.5981 97.2462 21.9124C98.532 20.1266 99.175 18.6996 99.175 17.6314C99.175 16.8637 98.9579 16.2545 98.5237 15.8039C98.0895 15.3366 97.5134 15.1029 96.7953 15.1029C96.0939 15.1029 95.5261 15.3366 95.0919 15.8039C94.6744 16.2545 94.474 16.8554 94.4907 17.6064V18.4826C94.4907 18.6495 94.4072 18.733 94.2402 18.733H92.3114C92.1444 18.733 92.0609 18.6495 92.0609 18.4826V17.4061C92.0943 16.0876 92.5535 15.0278 93.4386 14.2267C94.3404 13.4256 95.476 13.025 96.8454 13.025C97.7972 13.025 98.6322 13.2253 99.3503 13.6259C100.068 14.0097 100.62 14.5522 101.004 15.2531C101.404 15.9541 101.605 16.7469 101.605 17.6314C101.605 19.1168 100.937 20.8025 99.6008 22.6885C98.8326 23.7733 97.5802 25.4172 95.8434 27.6203L95.1169 28.5466Z" fill="#333333"/>
<path d="M109.858 31C108.338 31 107.119 30.5494 106.201 29.6481C105.299 28.7469 104.848 27.5369 104.848 26.0181V17.9569C104.848 16.4548 105.299 15.2531 106.201 14.3519C107.119 13.4506 108.338 13 109.858 13C111.378 13 112.597 13.4506 113.515 14.3519C114.434 15.2531 114.893 16.4548 114.893 17.9569V26.0181C114.893 27.5369 114.434 28.7469 113.515 29.6481C112.597 30.5494 111.378 31 109.858 31ZM109.858 28.9221C110.643 28.9221 111.277 28.6718 111.762 28.1711C112.246 27.6537 112.488 26.9777 112.488 26.1433V17.8567C112.488 17.0223 112.246 16.3547 111.762 15.854C111.277 15.3366 110.643 15.0779 109.858 15.0779C109.073 15.0779 108.438 15.3366 107.954 15.854C107.487 16.3547 107.253 17.0223 107.253 17.8567V26.1433C107.253 26.9777 107.487 27.6537 107.954 28.1711C108.438 28.6718 109.073 28.9221 109.858 28.9221Z" fill="#333333"/>
<path d="M120.005 13.3004C120.106 13.2503 120.214 13.2253 120.331 13.2253H122.31C122.477 13.2253 122.56 13.3088 122.56 13.4757V30.4993C122.56 30.6662 122.477 30.7497 122.31 30.7497H120.406C120.239 30.7497 120.156 30.6662 120.156 30.4993V15.8289C120.156 15.7955 120.139 15.7705 120.106 15.7538C120.089 15.7204 120.064 15.7121 120.03 15.7288L117.601 16.5049L117.5 16.5299C117.4 16.5299 117.333 16.4548 117.3 16.3046L117.2 14.8776C117.2 14.7441 117.258 14.644 117.375 14.5772L120.005 13.3004Z" fill="#333333"/>
<path d="M134.524 16.0793C134.841 16.7803 135 17.6147 135 18.5828V26.5188C135 27.8707 134.566 28.9471 133.697 29.7483C132.829 30.5494 131.693 30.9499 130.291 30.9499C128.938 30.9499 127.844 30.5494 127.009 29.7483C126.174 28.9471 125.757 27.8957 125.757 26.5939V26.0682C125.757 25.9013 125.84 25.8178 126.007 25.8178H127.911C128.078 25.8178 128.161 25.9013 128.161 26.0682V26.4186C128.161 27.1363 128.362 27.7204 128.763 28.1711C129.163 28.6217 129.673 28.847 130.291 28.847C130.975 28.847 131.526 28.6217 131.944 28.1711C132.378 27.7038 132.595 27.0946 132.595 26.3435V23.1641C132.595 23.1307 132.579 23.1057 132.545 23.089C132.528 23.0723 132.503 23.0807 132.47 23.114C131.819 23.8818 130.95 24.2656 129.865 24.2656C128.846 24.2656 127.994 23.9986 127.31 23.4645C126.625 22.9305 126.132 22.1961 125.832 21.2615C125.565 20.5772 125.431 19.7093 125.431 18.6579C125.431 17.7232 125.523 16.9722 125.707 16.4047C125.974 15.3199 126.491 14.4854 127.26 13.9013C128.028 13.3171 129.005 13.025 130.19 13.025C131.276 13.025 132.194 13.2921 132.946 13.8261C133.697 14.3435 134.223 15.0946 134.524 16.0793ZM130.215 22.2629C130.767 22.2629 131.217 22.121 131.568 21.8373C131.936 21.5369 132.194 21.1196 132.345 20.5855C132.512 20.0682 132.595 19.4339 132.595 18.6829C132.595 17.9986 132.537 17.4228 132.42 16.9555C132.27 16.3714 132.002 15.9207 131.618 15.6036C131.251 15.2865 130.783 15.128 130.215 15.128C129.664 15.128 129.197 15.2949 128.813 15.6287C128.429 15.9458 128.161 16.4131 128.011 17.0306C127.894 17.5814 127.836 18.1405 127.836 18.7079C127.836 19.4256 127.919 20.0598 128.086 20.6106C128.437 21.7121 129.147 22.2629 130.215 22.2629Z" fill="#333333"/>
</svg>
